# xmcd
#
# Track frame offsets: 
#        150
#        11300
#        30320
#        42905
#        52940
#        67855
#        76580
#        90440
#        101245
#        116615
#        129437
#        140485
#        152605
#
# Disc length: 2334 seconds
#
# Revision: 0
# Processed by: cddbd v1.5.2PL0 Copyright (c) Steve Scherf et al.
# Submitted via: ExactAudioCopy v0.99pb3
#
DISCID=8e091c0d
DTITLE=Floyd Red Crow Westerman - A Tribute to Johnny Cash
DYEAR=2006
DGENRE=Native American
TTITLE0=Ring Of Fire
TTITLE1=Sunday Mornin' Comin' Down
TTITLE2=I Walk The Line
TTITLE3=Guess Things Happen That Way
TTITLE4=Don't Take Your Guns To Town
TTITLE5=Big River
TTITLE6=Give My Love To Rose
TTITLE7=San Quentin
TTITLE8=Tennessee Flat Box Top
TTITLE9=Busted
TTITLE10=Folsom Prison Blues
TTITLE11=I Still Miss Some One
TTITLE12=Drums
EXTD=
EXTT0=
EXTT1=
EXTT2=
EXTT3=
EXTT4=
EXTT5=
EXTT6=
EXTT7=
EXTT8=
EXTT9=
EXTT10=
EXTT11=
EXTT12=
PLAYORDER=
